{
    "asset": {
        "generator": "FBX2glTF v0.9.7",
        "version": "2.0"
    },
    "scene": 0,
    "buffers": [
        {
            "byteLength": 448604,
            "uri": "buffer.bin"
        }
    ],
    "bufferViews": [
        {
            "buffer": 0,
            "byteLength": 17892,
            "byteOffset": 0,
            "target": 34963
        },
        {
            "buffer": 0,
            "byteLength": 64680,
            "byteOffset": 17892,
            "target": 34962
        },
        {
            "buffer": 0,
            "byteLength": 64680,
            "byteOffset": 82572,
            "target": 34962
        },
        {
            "buffer": 0,
            "byteLength": 43120,
            "byteOffset": 147252,
            "target": 34962
        },
        {
            "buffer": 0,
            "byteLength": 13608,
            "byteOffset": 190372,
            "target": 34963
        },
        {
            "buffer": 0,
            "byteLength": 31368,
            "byteOffset": 203980,
            "target": 34962
        },
        {
            "buffer": 0,
            "byteLength": 31368,
            "byteOffset": 235348,
            "target": 34962
        },
        {
            "buffer": 0,
            "byteLength": 20912,
            "byteOffset": 266716,
            "target": 34962
        },
        {
            "buffer": 0,
            "byteLength": 5556,
            "byteOffset": 287628,
            "target": 34963
        },
        {
            "buffer": 0,
            "byteLength": 8952,
            "byteOffset": 293184,
            "target": 34962
        },
        {
            "buffer": 0,
            "byteLength": 8952,
            "byteOffset": 302136,
            "target": 34962
        },
        {
            "buffer": 0,
            "byteLength": 5968,
            "byteOffset": 311088,
            "target": 34962
        },
        {
            "buffer": 0,
            "byteLength": 13818,
            "byteOffset": 317056,
            "target": 34963
        },
        {
            "buffer": 0,
            "byteLength": 44148,
            "byteOffset": 330876,
            "target": 34962
        },
        {
            "buffer": 0,
            "byteLength": 44148,
            "byteOffset": 375024,
            "target": 34962
        },
        {
            "buffer": 0,
            "byteLength": 29432,
            "byteOffset": 419172,
            "target": 34962
        }
    ],
    "scenes": [
        {
            "name": "Root Scene",
            "nodes": [
                0
            ]
        }
    ],
    "accessors": [
        {
            "componentType": 5123,
            "type": "SCALAR",
            "count": 8946,
            "bufferView": 0,
            "byteOffset": 0
        },
        {
            "componentType": 5126,
            "type": "VEC3",
            "count": 5390,
            "bufferView": 1,
            "byteOffset": 0,
            "min": [
                -0.271485596895218,
                0.0,
                -0.381730288267136
            ],
            "max": [
                0.262205123901367,
                0.109166584908962,
                0.245933219790459
            ]
        },
        {
            "componentType": 5126,
            "type": "VEC3",
            "count": 5390,
            "bufferView": 2,
            "byteOffset": 0
        },
        {
            "componentType": 5126,
            "type": "VEC2",
            "count": 5390,
            "bufferView": 3,
            "byteOffset": 0
        },
        {
            "componentType": 5123,
            "type": "SCALAR",
            "count": 6804,
            "bufferView": 4,
            "byteOffset": 0
        },
        {
            "componentType": 5126,
            "type": "VEC3",
            "count": 2614,
            "bufferView": 5,
            "byteOffset": 0,
            "min": [
                -0.226820960640907,
                0.0,
                -0.329588353633881
            ],
            "max": [
                0.213853850960732,
                0.402563691139221,
                0.210100889205933
            ]
        },
        {
            "componentType": 5126,
            "type": "VEC3",
            "count": 2614,
            "bufferView": 6,
            "byteOffset": 0
        },
        {
            "componentType": 5126,
            "type": "VEC2",
            "count": 2614,
            "bufferView": 7,
            "byteOffset": 0
        },
        {
            "componentType": 5123,
            "type": "SCALAR",
            "count": 2778,
            "bufferView": 8,
            "byteOffset": 0
        },
        {
            "componentType": 5126,
            "type": "VEC3",
            "count": 746,
            "bufferView": 9,
            "byteOffset": 0,
            "min": [
                -0.290627747774124,
                0.00225337827578187,
                -0.378403037786484
            ],
            "max": [
                0.290466368198395,
                0.0361789166927338,
                0.374289363622665
            ]
        },
        {
            "componentType": 5126,
            "type": "VEC3",
            "count": 746,
            "bufferView": 10,
            "byteOffset": 0
        },
        {
            "componentType": 5126,
            "type": "VEC2",
            "count": 746,
            "bufferView": 11,
            "byteOffset": 0
        },
        {
            "componentType": 5123,
            "type": "SCALAR",
            "count": 6909,
            "bufferView": 12,
            "byteOffset": 0
        },
        {
            "componentType": 5126,
            "type": "VEC3",
            "count": 3679,
            "bufferView": 13,
            "byteOffset": 0,
            "min": [
                -0.211014956235886,
                -1.52587887214395e-07,
                -0.322086066007614
            ],
            "max": [
                0.199395656585693,
                0.284650206565857,
                -0.0900767520070076
            ]
        },
        {
            "componentType": 5126,
            "type": "VEC3",
            "count": 3679,
            "bufferView": 14,
            "byteOffset": 0
        },
        {
            "componentType": 5126,
            "type": "VEC2",
            "count": 3679,
            "bufferView": 15,
            "byteOffset": 0
        }
    ],
    "images": [
        {
            "name": "normalmap_texture",
            "uri": "data:image/png;base64,"
        },
        {
            "name": "base_color_texture",
            "uri": "data:image/png;base64,"
        }
    ],
    "samplers": [
        {}
    ],
    "textures": [
        {
            "name": "normalmap_texture",
            "sampler": 0,
            "source": 0
        },
        {
            "name": "base_color_texture",
            "sampler": 0,
            "source": 1
        }
    ],
    "materials": [
        {
            "name": "Castle_Exterior_Tex",
            "alphaMode": "OPAQUE",
            "extras": {
                "fromFBX": {
                    "shadingModel": "Phong",
                    "isTruePBR": false
                }
            },
            "normalTexture": {
                "index": 0,
                "texCoord": 0
            },
            "pbrMetallicRoughness": {
                "baseColorTexture": {
                    "index": 1,
                    "texCoord": 0
                },
                "baseColorFactor": [
                    1.0,
                    1.0,
                    1.0,
                    1.0
                ],
                "metallicFactor": 0.400000005960464,
                "roughnessFactor": 0.301511347293854
            }
        },
        {
            "name": "Towers_Doors_and_Windows_Tex",
            "alphaMode": "OPAQUE",
            "extras": {
                "fromFBX": {
                    "shadingModel": "Phong",
                    "isTruePBR": false
                }
            },
            "normalTexture": {
                "index": 0,
                "texCoord": 0
            },
            "pbrMetallicRoughness": {
                "baseColorTexture": {
                    "index": 1,
                    "texCoord": 0
                },
                "baseColorFactor": [
                    1.0,
                    1.0,
                    1.0,
                    1.0
                ],
                "metallicFactor": 0.400000005960464,
                "roughnessFactor": 0.301511347293854
            }
        },
        {
            "name": "Ground_and_Fountain_Tex",
            "alphaMode": "OPAQUE",
            "extras": {
                "fromFBX": {
                    "shadingModel": "Phong",
                    "isTruePBR": false
                }
            },
            "normalTexture": {
                "index": 0,
                "texCoord": 0
            },
            "pbrMetallicRoughness": {
                "baseColorTexture": {
                    "index": 1,
                    "texCoord": 0
                },
                "baseColorFactor": [
                    1.0,
                    1.0,
                    1.0,
                    1.0
                ],
                "metallicFactor": 0.400000005960464,
                "roughnessFactor": 0.301511347293854
            }
        },
        {
            "name": "Castle_Interior_Texture",
            "alphaMode": "OPAQUE",
            "extras": {
                "fromFBX": {
                    "shadingModel": "Phong",
                    "isTruePBR": false
                }
            },
            "normalTexture": {
                "index": 0,
                "texCoord": 0
            },
            "pbrMetallicRoughness": {
                "baseColorTexture": {
                    "index": 1,
                    "texCoord": 0
                },
                "baseColorFactor": [
                    1.0,
                    1.0,
                    1.0,
                    1.0
                ],
                "metallicFactor": 0.400000005960464,
                "roughnessFactor": 0.301511347293854
            }
        }
    ],
    "meshes": [
        {
            "name": "Castle_Exterior",
            "primitives": [
                {
                    "material": 0,
                    "mode": 4,
                    "attributes": {
                        "NORMAL": 2,
                        "POSITION": 1,
                        "TEXCOORD_0": 3
                    },
                    "indices": 0
                }
            ]
        },
        {
            "name": "Towers_Doors_and_Windows",
            "primitives": [
                {
                    "material": 1,
                    "mode": 4,
                    "attributes": {
                        "NORMAL": 6,
                        "POSITION": 5,
                        "TEXCOORD_0": 7
                    },
                    "indices": 4
                }
            ]
        },
        {
            "name": "Ground_and_Fountain",
            "primitives": [
                {
                    "material": 2,
                    "mode": 4,
                    "attributes": {
                        "NORMAL": 10,
                        "POSITION": 9,
                        "TEXCOORD_0": 11
                    },
                    "indices": 8
                }
            ]
        },
        {
            "name": "Castle_Interior",
            "primitives": [
                {
                    "material": 3,
                    "mode": 4,
                    "attributes": {
                        "NORMAL": 14,
                        "POSITION": 13,
                        "TEXCOORD_0": 15
                    },
                    "indices": 12
                }
            ]
        }
    ],
    "nodes": [
        {
            "name": "RootNode",
            "translation": [
                0.0,
                0.0,
                0.0
            ],
            "rotation": [
                0.0,
                0.0,
                0.0,
                1.0
            ],
            "scale": [
                1.0,
                1.0,
                1.0
            ],
            "children": [
                1,
                2,
                3,
                4
            ]
        },
        {
            "name": "Castle_Exterior",
            "translation": [
                0.0,
                0.0,
                0.0
            ],
            "rotation": [
                8.14603353660459e-08,
                0.0,
                0.0,
                1.0
            ],
            "scale": [
                1.0,
                1.0,
                1.0
            ],
            "mesh": 0
        },
        {
            "name": "Towers_Doors_and_Windows",
            "translation": [
                0.0,
                0.0,
                0.0
            ],
            "rotation": [
                8.14603353660459e-08,
                0.0,
                0.0,
                1.0
            ],
            "scale": [
                1.0,
                1.0,
                1.0
            ],
            "mesh": 1
        },
        {
            "name": "Ground_and_Fountain",
            "translation": [
                0.0,
                0.0,
                0.0
            ],
            "rotation": [
                8.14603353660459e-08,
                0.0,
                0.0,
                1.0
            ],
            "scale": [
                1.0,
                1.0,
                1.0
            ],
            "mesh": 2
        },
        {
            "name": "Castle_Interior",
            "translation": [
                0.0,
                0.0,
                0.0
            ],
            "rotation": [
                8.14603353660459e-08,
                0.0,
                0.0,
                1.0
            ],
            "scale": [
                1.0,
                1.0,
                1.0
            ],
            "mesh": 3
        }
    ]
}